Season 3 Part 1 of Shin Chan
[img]http://i1214.photobucket.com/albums/cc487/seeder1/shin_chan_z.gif[/img]
ANN Link to the Show
[url]http://www.animenewsnetwork.com/encyclopedia/anime.php?id=540[/url]
[quote]Plot Summary: Shinnosuke "Shin-chan" Nohara is a little boy who seems to do everything he can to annoy his parents and teachers (and succeeds wildly), but only means the best. He just tries to have a good time and in doing so does things which will create the maximum vexation in others. [/quote]

AVC/AAC MP4's
Resolution: 720x536 & 720x408 (Some are 4:3 while others are 16:9)
Frame rate: 23.976 fps


Includes:
Episodes 53 - 65


Enjoy and Please Seed.

Can't play the files? Download and use [url=http://cccp-project.net/]CCCP[/url] and stop living in the past.

Example File Info:

[quote]General
Complete name                    : Shin Chan Episode 63 - The Upside of Prison Showers.mp4
Format                           : MPEG-4
Format profile                   : Base Media
Codec ID                         : isom
File size                        : 107 MiB
Duration                         : 26mn 42s
Overall bit rate                 : 558 Kbps

Video
ID                               : 1
Format                           : AVC
Format/Info                      : Advanced Video Codec
Format profile                   : High@L5.1
Format settings, CABAC           : Yes
Format settings, ReFrames        : 9 frames
Format settings, GOP             : M=1, N=9
Codec ID                         : avc1
Codec ID/Info                    : Advanced Video Coding
Duration                         : 26mn 42s
Bit rate mode                    : Variable
Bit rate                         : 362 Kbps
Maximum bit rate                 : 4 608 Kbps
Width                            : 720 pixels
Height                           : 408 pixels
Display aspect ratio             : 16:9
Frame rate mode                  : Constant
Frame rate                       : 23.976 fps
Color space                      : YUV
Chroma subsampling               : 4:2:0
Bit depth                        : 8 bits
Scan type                        : Progressive
Bits/(Pixel*Frame)               : 0.051
Stream size                      : 69.1 MiB (65%)
Title                            : Imported with GPAC 0.4.6-DEV (build 1)
Writing library                  : x264 core 92 r1510 33d382a
Encoding settings                : *snipped*


Audio
ID                               : 2
Format                           : AAC
Format/Info                      : Advanced Audio Codec
Format profile                   : LC
Codec ID                         : 40
Duration                         : 26mn 42s
Bit rate mode                    : Variable
Bit rate                         : 192 Kbps
Maximum bit rate                 : 218 Kbps
Channel(s)                       : 2 channels
Channel positions                : Front: L R
Sampling rate                    : 48.0 KHz
Compression mode                 : Lossy
Stream size                      : 36.7 MiB (34%)
[/quote]